<?xml version="1.0" standalone="no"?>
<!DOCTYPE svg PUBLIC "-//W3C//DTD SVG 20010904//EN"
 "http://www.w3.org/TR/2001/REC-SVG-20010904/DTD/svg10.dtd">
<svg version="1.0" xmlns="http://www.w3.org/2000/svg"
 width="840.000000pt" height="815.000000pt" viewBox="0 0 840.000000 815.000000"
 preserveAspectRatio="xMidYMid meet">

<g transform="translate(0.000000,815.000000) scale(0.100000,-0.100000)"
fill="#000000" stroke="none">
<path d="M2822 7683 c-24 -53 -23 -293 1 -374 18 -61 71 -119 107 -119 13 0
20 -7 20 -20 0 -49 219 -513 350 -740 106 -185 228 -370 324 -493 70 -90 73
-96 47 -91 -39 8 -135 -13 -201 -44 -71 -33 -176 -138 -222 -222 -20 -36 -46
-97 -58 -136 -20 -69 -21 -70 -51 -66 -17 2 -62 -3 -102 -13 -175 -43 -311
-134 -444 -299 -36 -45 -72 -85 -81 -90 -8 -5 -52 -13 -97 -17 -210 -21 -405
-150 -506 -335 -31 -55 -75 -112 -152 -192 -189 -198 -245 -309 -254 -507 -6
-131 7 -196 66 -312 59 -119 162 -244 286 -350 28 -24 45 -43 38 -43 -6 0 -36
23 -66 50 -30 28 -58 50 -63 50 -4 0 10 -15 32 -34 l39 -34 -22 -46 c-13 -26
-23 -49 -23 -51 0 -3 18 -5 40 -5 l39 0 3 -62 3 -63 65 -5 c64 -5 65 -5 68
-36 3 -31 4 -31 40 -23 61 14 107 11 125 -9 10 -10 24 -42 32 -70 l16 -52 27
20 c15 11 70 30 122 42 80 19 124 22 270 22 248 0 428 -30 875 -143 280 -72
393 -85 580 -71 122 9 185 24 260 63 49 25 33 32 -35 18 -28 -6 -65 -11 -83
-10 -18 1 2 7 47 15 44 8 120 31 170 51 106 42 121 43 201 13 80 -30 178 -35
303 -16 56 9 207 20 335 26 479 22 603 30 642 41 l40 12 -60 12 -60 11 135 6
c143 6 219 25 290 72 84 55 94 60 87 49 -4 -6 -35 -29 -68 -51 l-61 -40 50 -7
c44 -6 194 9 215 22 4 2 -2 16 -13 30 -24 31 -26 61 -4 70 9 3 43 -2 76 -11
33 -9 63 -15 65 -12 3 2 -7 22 -21 43 -33 48 -33 59 4 78 23 12 30 22 30 44 0
25 -3 28 -27 24 -20 -4 -6 10 50 46 43 28 80 51 82 51 2 0 1 -9 -2 -21 -4 -15
0 -22 16 -26 26 -7 26 -5 0 -82 l-21 -62 21 -15 c33 -23 24 -102 -19 -164 -10
-14 -21 -41 -24 -60 -4 -19 -27 -98 -51 -175 -24 -77 -57 -189 -74 -250 -175
-640 -262 -915 -288 -915 -14 0 -15 13 -11 93 3 50 4 88 2 82 -2 -5 -26 -111
-54 -235 -28 -124 -56 -237 -62 -253 -15 -38 -38 -35 -38 6 -1 27 -6 19 -33
-48 -45 -111 -111 -211 -145 -220 -15 -4 -66 -29 -113 -56 -312 -178 -680
-293 -1159 -363 -315 -46 -877 -46 -1076 -1 -110 26 -271 74 -353 107 -59 23
-80 27 -93 19 -22 -13 -48 -14 -48 -2 0 24 -175 161 -206 161 -7 0 -14 -9 -17
-21 -10 -37 -40 -17 -92 62 -27 42 -71 100 -97 129 l-48 53 0 -39 c0 -50 -19
-79 -46 -70 -29 9 -77 96 -119 216 -21 58 -48 125 -61 150 l-24 45 5 -65 c6
-71 -2 -94 -31 -88 -38 7 -100 147 -225 508 -43 124 -78 218 -78 210 -1 -8 4
-31 9 -50 24 -79 70 -294 70 -325 0 -47 -16 -52 -39 -14 -29 47 -184 521 -321
979 -98 327 -138 442 -167 472 -22 23 -25 33 -19 68 4 29 1 49 -11 73 -12 23
-18 59 -19 125 l-2 92 34 0 c42 0 47 9 30 56 -17 50 -46 59 -46 15 0 -28 -3
-31 -30 -31 -38 0 -46 -18 -31 -76 9 -33 9 -55 0 -83 -10 -32 -8 -44 11 -90
20 -46 21 -57 11 -92 -11 -37 -10 -41 15 -67 19 -19 41 -71 76 -182 120 -377
456 -1391 514 -1554 83 -231 120 -301 199 -374 253 -237 712 -401 1295 -462
129 -14 621 -13 819 0 502 35 1016 151 1374 310 106 47 297 149 335 179 16 12
71 192 231 746 115 402 255 885 310 1075 54 190 102 357 106 372 6 23 3 29
-19 39 -32 15 -32 21 -1 97 14 34 25 65 25 70 0 10 -61 33 -71 26 -5 -3 -9 -1
-9 4 0 5 17 22 38 39 20 17 51 54 67 84 24 45 30 65 29 119 0 109 -51 178
-188 255 l-66 37 0 67 c0 210 -68 326 -253 429 -81 46 -93 56 -144 132 -125
182 -252 287 -375 310 -70 13 -192 72 -325 158 -59 38 -136 84 -171 101 -34
17 -87 54 -117 81 -63 57 -113 86 -127 72 -13 -13 7 -59 31 -67 10 -3 39 -24
63 -46 24 -22 79 -57 124 -79 44 -22 116 -64 160 -93 126 -86 262 -154 328
-166 87 -16 160 -53 219 -113 56 -55 172 -206 190 -246 6 -14 43 -40 90 -64
97 -50 189 -134 225 -202 23 -46 27 -64 30 -176 l4 -126 56 -29 c118 -62 212
-163 212 -229 0 -103 -155 -247 -348 -325 -72 -29 -84 -38 -107 -77 -31 -54
-132 -139 -200 -170 -115 -52 -281 -56 -473 -9 -57 14 -118 25 -137 25 -18 0
-89 -15 -157 -34 -147 -40 -274 -61 -455 -76 -124 -10 -177 -7 -334 16 -28 5
-56 -4 -135 -39 -139 -64 -208 -80 -334 -80 -91 1 -120 5 -220 36 -122 38
-319 115 -645 254 -296 126 -457 188 -628 239 -299 91 -460 178 -617 334 -93
93 -111 116 -152 200 -53 110 -68 167 -71 268 -1 40 -5 72 -8 72 -10 0 -57
-55 -88 -104 -16 -27 -42 -85 -57 -129 -21 -64 -26 -92 -22 -146 17 -236 233
-477 631 -703 174 -98 168 -120 -18 -66 -197 57 -399 192 -558 373 -85 97
-160 233 -172 314 -11 67 -7 225 6 273 26 100 101 211 230 343 64 65 112 126
140 175 127 226 270 317 554 350 60 7 73 12 90 36 82 113 118 155 178 205 84
71 178 121 287 153 47 13 93 27 103 31 9 4 17 3 17 -3 0 -6 14 -13 31 -17 27
-6 35 -2 64 29 84 92 237 119 417 72 169 -43 374 -139 558 -261 82 -54 162
-127 290 -264 20 -22 41 -30 100 -40 96 -15 196 -45 284 -83 l70 -30 17 21
c54 67 119 320 119 463 0 102 -28 266 -63 366 -82 235 -325 490 -526 552 -121
38 -264 24 -382 -36 -63 -31 -197 -134 -243 -184 -36 -40 -38 -41 -57 -24 -32
28 -201 242 -262 329 -149 215 -349 591 -452 850 -27 66 -54 125 -62 131 -11
10 -11 13 1 23 35 29 24 196 -18 279 -23 46 -142 168 -186 192 -18 10 -22 7
-38 -27z m221 -518 l6 -40 -15 28 c-9 16 -13 36 -10 44 9 21 12 15 19 -32z
m-43 -6 c0 -6 -4 -7 -10 -4 -5 3 -10 11 -10 16 0 6 5 7 10 4 6 -3 10 -11 10
-16z m3451 -4006 c-5 -10 -24 -31 -41 -48 l-33 -30 34 47 c33 46 59 66 40 31z"/>
<path d="M3130 5213 c-162 -173 -278 -484 -240 -642 14 -58 58 -104 248 -256
234 -188 410 -266 732 -325 137 -25 610 -42 610 -21 0 16 -171 141 -308 224
-64 39 -259 140 -432 226 -380 187 -460 233 -526 302 -72 77 -88 124 -82 251
4 82 12 122 37 196 18 51 31 98 29 104 -2 5 -33 -21 -68 -59z"/>
<path d="M2454 4835 c-200 -101 -315 -347 -313 -674 0 -75 4 -145 8 -155 6
-16 28 4 135 126 198 225 205 240 180 351 -23 100 -15 212 20 300 16 38 26 70
24 73 -3 2 -27 -7 -54 -21z"/>
<path d="M2073 2604 c8 -50 110 -385 115 -379 6 5 -78 375 -90 398 -16 31 -31
20 -25 -19z"/>
<path d="M2191 2194 c0 -11 3 -14 6 -6 3 7 2 16 -1 19 -3 4 -6 -2 -5 -13z"/>
<path d="M6311 1834 c0 -11 3 -14 6 -6 3 7 2 16 -1 19 -3 4 -6 -2 -5 -13z"/>
<path d="M6301 1784 c0 -11 3 -14 6 -6 3 7 2 16 -1 19 -3 4 -6 -2 -5 -13z"/>
</g>
</svg>
